HIERARCHY
ROOT hip
{
	OFFSET 0.000000 0.000000 0.000000 
	CHANNELS 6 Xposition Yposition Zposition Xrotation Zrotation Yrotation
	JOINT abdomen
	{
		OFFSET 0.000000 3.402643 0.000000 
		CHANNELS 3 Xrotation Zrotation Yrotation
		JOINT chest
		{
			OFFSET 0.000000 8.438565 -0.680529 
			CHANNELS 3 Xrotation Zrotation Yrotation
			JOINT neck
			{
				OFFSET 0.000000 10.207942 -0.272212 
				CHANNELS 3 Xrotation Zrotation Yrotation
				JOINT head
				{
					OFFSET 0.000000 3.130431 0.000000 
					CHANNELS 3 Xrotation Zrotation Yrotation
					End Site
					{
						OFFSET 0.000000 3.130435 0.000000 
					}
				}
			}
			JOINT lCollar
			{
				OFFSET 3.470700 6.669187 -0.816635 
				CHANNELS 3 Yrotation Zrotation Xrotation
				JOINT lShldr
				{
					OFFSET 3.198488 0.000000 0.000000 
					CHANNELS 3 Zrotation Yrotation Xrotation
					JOINT lForeArm
					{
						OFFSET 10.139888 0.000000 0.000000 
						CHANNELS 3 Yrotation Zrotation Xrotation
						JOINT lHand
						{
							OFFSET 8.370511 0.000000 0.000000 
							CHANNELS 3 Zrotation Yrotation Xrotation
							End Site
							{
								OFFSET 4.083176 0.000000 0.000000 
							}
						}
					}
				}
			}
			JOINT rCollar
			{
				OFFSET -3.470700 6.669187 -0.816635 
				CHANNELS 3 Yrotation Zrotation Xrotation
				JOINT rShldr
				{
					OFFSET -3.198488 0.000000 0.000000 
					CHANNELS 3 Zrotation Yrotation Xrotation
					JOINT rForeArm
					{
						OFFSET -10.139888 0.000000 0.000000 
						CHANNELS 3 Yrotation Zrotation Xrotation
						JOINT rHand
						{
							OFFSET -8.370511 0.000000 0.000000 
							CHANNELS 3 Zrotation Yrotation Xrotation
							End Site
							{
								OFFSET -4.083176 0.000000 0.000000 
							}
						}
					}
				}
			}
		}
	}
	JOINT lThigh
	{
		OFFSET 5.308129 -1.633274 1.361059 
		CHANNELS 3 Xrotation Zrotation Yrotation
		JOINT lShin
		{
			OFFSET -2.041588 -20.007561 0.000000 
			CHANNELS 3 Xrotation Zrotation Yrotation
			JOINT lFoot
			{
				OFFSET 0.000000 -19.190928 -1.224953 
				CHANNELS 3 Xrotation Yrotation Zrotation
				End Site
				{
					OFFSET 0.000000 -2.449906 4.627600 
				}
			}
		}
	}
	JOINT rThigh
	{
		OFFSET -5.308129 -1.633274 1.361059 
		CHANNELS 3 Xrotation Zrotation Yrotation
		JOINT rShin
		{
			OFFSET 2.041588 -20.007561 0.000000 
			CHANNELS 3 Xrotation Zrotation Yrotation
			JOINT rFoot
			{
				OFFSET 0.000000 -19.190928 -1.224953 
				CHANNELS 3 Xrotation Yrotation Zrotation
				End Site
				{
					OFFSET 0.000000 -2.449906 4.627600 
				}
			}
		}
	}
}
MOTION
Frames: 6
Frame Time: 0.016667
-2.526880 40.583073 78.837097 19.896200 -1.074390 -2.420180 -19.556400 3.122210 3.212490 12.205900 -0.937224 1.993020 0.553619 2.934606 -6.336945 8.028710 6.567500 -1.775050 2.000000 -2.000000 0.000000 110.093002 136.238007 17.671400 100.195999 -0.188920 0.153976 -179.923996 -179.904007 6.369340 -2.000000 2.000000 0.000000 83.138802 12.441800 -159.257996 -122.774002 0.146125 0.096988 -0.087277 0.092719 -168.054001 -61.731606 2.706873 -1.264225 75.238052 -0.632225 4.755666 -5.936713 -14.569106 -1.482956 0.503150 6.027883 5.598381 26.599102 -3.957696 -1.724181 12.743341 1.515053 0.569371 
-2.637364 40.777237 82.003014 19.087099 -1.292050 -0.173708 -19.626101 3.012590 3.114510 12.381800 -0.918309 1.928770 1.046449 2.600170 -7.335956 8.188360 6.789920 -2.121840 2.000000 -2.000000 0.000000 110.055000 133.699005 17.434299 102.403000 -0.183387 0.152870 -179.923996 -179.904999 6.808790 -2.000000 2.000000 0.000000 82.141502 10.605200 -158.940002 -124.931999 0.142154 0.094324 -0.086700 0.091757 -167.654007 -61.420395 1.082161 -1.739426 69.380394 -0.115274 4.584064 -7.266683 -16.635834 -2.042281 5.888199 6.781965 7.208763 21.453493 -6.152448 -1.233724 27.710949 3.033945 1.007766 
-2.795424 40.777363 85.121414 18.253099 -1.947670 2.043040 -19.771200 3.014240 2.756360 12.382200 -0.686315 1.739200 1.662928 2.493889 -8.188532 8.210910 7.052670 -2.383630 2.000000 -2.000000 0.000000 108.981003 133.671005 16.770100 103.819000 -0.179861 0.152048 -179.925003 -179.897003 7.502170 -2.000000 2.000000 0.000000 82.052399 6.904030 -158.947998 -123.653000 0.144496 0.095921 -0.084662 0.088229 -166.199005 -59.776237 0.510735 -1.030324 64.475616 0.274204 4.400210 -8.013593 -18.869732 -2.644076 8.275647 9.037705 9.910135 22.153383 -7.169861 -1.300012 31.723417 5.586495 0.338431 
-2.953473 40.777493 88.239700 17.391001 -2.562950 4.285400 -19.915400 3.006450 2.400940 12.382500 -0.463988 1.560790 2.270391 2.405696 -9.030961 8.233690 7.325150 -2.633540 2.000000 -2.000000 0.000000 107.896004 133.643997 16.096201 105.235001 -0.176356 0.151140 0.073465 -0.091758 -171.804001 -2.000000 2.000000 0.000000 81.954002 3.193080 -158.947006 -122.363998 0.146891 0.097477 -0.082715 0.074884 -164.744003 -58.199196 -0.091092 -0.337863 59.659512 0.633301 4.204132 -8.802782 -21.060968 -3.265365 10.809618 11.366291 12.642161 22.978506 -8.453063 -1.442156 35.699608 8.229933 -0.491881 
-3.105175 40.676613 91.171608 17.251499 -3.031320 6.178100 -19.919901 2.671090 1.951160 12.587500 -0.560937 1.308990 3.124578 2.182036 -9.663861 8.532680 7.613760 -2.690570 2.000000 -2.000000 0.000000 -73.745697 43.386101 -164.574005 106.329002 -0.173665 0.150379 0.071571 -0.088979 -170.602997 -2.000000 2.000000 0.000000 82.784302 -0.233383 -159.522003 -118.281998 0.154697 0.102042 -0.081262 0.072064 -163.610992 -56.223679 -0.489390 0.974874 56.815834 0.807277 4.087348 -9.437505 -21.819410 -3.822365 7.999110 11.891630 10.442870 31.655096 -5.201093 -1.878289 32.453743 2.915436 1.181379 
-3.256887 40.575871 94.103638 17.103001 -3.491240 8.076550 -19.923201 2.339110 1.510130 12.792500 -0.657975 1.066270 3.969164 1.959753 -10.301751 8.832180 7.901920 -2.743320 2.000000 -2.000000 0.000000 -75.271103 40.406300 -165.108002 107.421997 -0.170990 0.149567 0.069734 -0.086160 -169.401993 -2.000000 2.000000 0.000000 83.654198 -3.640200 -160.145004 -114.190002 0.162828 0.106049 -0.079865 0.069216 -162.477997 -54.180489 -0.936978 2.281133 53.795910 0.965509 3.955227 -9.963749 -22.543116 -4.372248 4.649100 13.377213 8.044109 41.733013 -3.817089 -2.554099 28.583223 -1.879874 3.272980 
